<svg xmlns="http://www.w3.org/2000/svg" viewBox="0 0 200 200">
  <rect width="200" height="200" fill="#9B88B8" rx="20"/>
  <path d="M 145 55
           C 135 45, 115 40, 95 45
           C 75 50, 60 65, 55 85
           C 52 95, 52 105, 55 115
           C 58 125, 63 135, 70 143
           C 80 155, 95 162, 112 160
           C 125 159, 137 153, 145 143
           C 138 150, 125 155, 110 155
           C 92 155, 78 147, 70 135
           C 65 127, 62 117, 60 107
           C 58 97, 59 87, 63 78
           C 70 65, 83 56, 98 54
           C 113 52, 128 57, 138 68
           C 145 76, 149 87, 150 98
           C 151 109, 148 120, 142 130
           C 136 140, 126 148, 113 152
           C 108 153, 103 153, 98 152
           L 105 162
           C 112 163, 120 162, 127 159
           C 142 153, 154 141, 160 126
           C 166 111, 167 94, 162 78
           C 157 65, 150 58, 145 55 Z"
        fill="#E8D5F2"/>
</svg>